<?xml version="1.0" standalone="no"?>
<!DOCTYPE svg PUBLIC "-//W3C//DTD SVG 20010904//EN"
 "http://www.w3.org/TR/2001/REC-SVG-20010904/DTD/svg10.dtd">
<svg version="1.0" xmlns="http://www.w3.org/2000/svg"
 width="827.000000pt" height="207.000000pt" viewBox="0 0 827.000000 207.000000"
 preserveAspectRatio="xMidYMid meet">

<g transform="translate(0.000000,207.000000) scale(0.100000,-0.100000)"
fill="#000000" stroke="none">
<path d="M5520 1319 c-78 -13 -191 -71 -250 -129 -94 -95 -150 -257 -150 -433
2 -391 216 -593 584 -550 52 6 119 19 150 29 l56 18 0 97 0 97 -62 -19 c-107
-32 -218 -45 -280 -31 -143 34 -208 146 -208 363 0 213 73 338 217 370 64 15
133 4 232 -36 34 -14 66 -23 70 -21 12 7 75 175 69 182 -14 14 -152 55 -214
64 -81 11 -138 11 -214 -1z"/>
<path d="M6307 1278 c-8 -24 -94 -269 -191 -545 -97 -276 -176 -504 -176 -507
0 -3 55 -6 123 -6 l123 0 39 130 38 130 202 0 201 0 38 -130 39 -130 124 0
c96 0 124 3 121 13 -3 6 -90 254 -194 549 l-189 538 -142 0 -141 0 -15 -42z
m232 -378 c38 -123 68 -226 67 -228 -2 -1 -66 -1 -143 0 l-141 3 54 175 c29
96 61 202 70 235 9 33 19 56 21 50 1 -5 34 -111 72 -235z"/>
<path d="M6950 1215 l0 -95 150 0 150 0 0 -450 0 -450 115 0 115 0 0 450 0
450 150 0 150 0 0 95 0 95 -415 0 -415 0 0 -95z"/>
</g>
</svg>
